<svg width="20" height="20" viewBox="0 0 20 20" fill="none" xmlns="http://www.w3.org/2000/svg">
<path d="M8.09829 5.35907L6.64478 3.90555C6.94086 3.58254 7.73491 2.7609 8.54242 2.05836C9.55181 1.1802 10.8337 0.503906 12.9232 0.503906C14.5947 0.503906 15.9345 1.19702 16.3955 1.54358C16.0624 1.86994 15.2993 2.62968 14.9117 3.05766C12.8929 2.12903 11.3485 2.70438 10.4401 3.22926C9.71331 3.64916 8.57607 4.82409 8.09829 5.35907Z" fill="#A70096"/>
<path d="M14.626 11.8497L16.0723 13.3103C16.3967 13.0158 17.2223 12.2259 17.9288 11.4218C18.812 10.4168 19.4946 9.13824 19.5049 7.04884C19.5132 5.37731 18.8267 4.03411 18.4824 3.57145C18.1544 3.90293 17.3909 4.66226 16.961 5.04774C17.8797 7.07108 17.2967 8.61258 16.7673 9.51843C16.3438 10.2431 15.1633 11.3745 14.626 11.8497Z" fill="#A70096"/>
<path d="M11.9315 14.5892L13.385 16.0427C13.0889 16.3657 12.2949 17.1873 11.4874 17.8899C10.478 18.768 9.19605 19.4443 7.10662 19.4443C5.43507 19.4443 4.09528 18.7512 3.63433 18.4047C3.96743 18.0783 4.73052 17.3186 5.11813 16.8906C7.1369 17.8192 8.68126 17.2439 9.58971 16.719C10.3165 16.2991 11.4537 15.1241 11.9315 14.5892Z" fill="#A70096"/>
<path d="M5.40407 8.09859L3.95775 6.63791C3.63329 6.93239 2.80773 7.72237 2.10121 8.5264C1.21807 9.53144 0.535448 10.81 0.52512 12.8994C0.516859 14.5709 1.20334 15.9141 1.54761 16.3768C1.87563 16.0453 2.63912 15.286 3.06902 14.9005C2.15037 12.8772 2.73335 11.3357 3.26271 10.4298C3.68621 9.70514 4.86674 8.57372 5.40407 8.09859Z" fill="#A70096"/>
<rect x="13.5691" y="4.99414" width="6.9244" height="2.03896" rx="1.01948" transform="rotate(-44.969 13.5691 4.99414)" fill="#A70096"/>
<rect x="15.5225" y="14.9688" width="3.74634" height="0.792534" rx="0.396267" transform="rotate(44.4986 15.5225 14.9688)" fill="#A70096"/>
<rect x="2.3147" y="1.77637" width="3.74634" height="0.792534" rx="0.396267" transform="rotate(44.4986 2.3147 1.77637)" fill="#A70096"/>
<rect x="5.08838" width="3.74634" height="0.792534" rx="0.396267" transform="rotate(74.8741 5.08838 0)" fill="#A70096"/>
<rect x="0.203613" y="4.29883" width="3.74634" height="0.792534" rx="0.396267" transform="rotate(14.8702 0.203613 4.29883)" fill="#A70096"/>
<rect x="14.9102" y="19.9756" width="3.74634" height="0.792534" rx="0.396267" transform="rotate(-105.126 14.9102 19.9756)" fill="#A70096"/>
<rect x="19.7949" y="15.6768" width="3.74634" height="0.792534" rx="0.396267" transform="rotate(-165.13 19.7949 15.6768)" fill="#A70096"/>
<rect x="0.104248" y="18.4395" width="6.9244" height="2.03896" rx="1.01948" transform="rotate(-44.969 0.104248 18.4395)" fill="#A70096"/>
</svg>
