<svg width="38" height="33" viewBox="0 0 38 33" fill="none" xmlns="http://www.w3.org/2000/svg">
<path d="M18.5 0C27.6127 0 35 7.3873 35 16.5C35 25.6127 27.6127 33 18.5 33C9.3873 33 2 25.6127 2 16.5C2 7.3873 9.3873 0 18.5 0ZM18.5 1.60938C10.2763 1.60938 3.60938 8.27635 3.60938 16.5C3.60955 24.7235 10.2765 31.3896 18.5 31.3896C26.7235 31.3896 33.3904 24.7235 33.3906 16.5C33.3906 8.27637 26.7236 1.60942 18.5 1.60938Z" fill="#A10071"/>
<path d="M5.95064 16.2646C5.91371 15.8922 5.75521 15.6029 5.47514 15.3967C5.19508 15.1905 4.81499 15.0874 4.33487 15.0874C4.00864 15.0874 3.73319 15.1335 3.50852 15.2259C3.28385 15.3151 3.11151 15.4397 2.99148 15.5998C2.87453 15.7598 2.81605 15.9414 2.81605 16.1445C2.8099 16.3138 2.84529 16.4615 2.92223 16.5877C3.00225 16.7139 3.11151 16.8232 3.25 16.9155C3.38849 17.0047 3.54853 17.0832 3.73011 17.1509C3.9117 17.2156 4.10559 17.271 4.31179 17.3171L5.16122 17.5202C5.57363 17.6126 5.95218 17.7357 6.29688 17.8896C6.64157 18.0434 6.9401 18.2327 7.19247 18.4574C7.44484 18.6821 7.64027 18.9467 7.77876 19.2514C7.92034 19.5561 7.99266 19.9054 7.99574 20.2994C7.99266 20.878 7.84493 21.3796 7.55256 21.8043C7.26326 22.226 6.8447 22.5537 6.29688 22.7876C5.75213 23.0185 5.09505 23.1339 4.32564 23.1339C3.56238 23.1339 2.89761 23.0169 2.33132 22.783C1.76811 22.5491 1.32801 22.2029 1.01101 21.7443C0.697088 21.2827 0.532434 20.7118 0.517045 20.0316H2.45135C2.47289 20.3486 2.56368 20.6133 2.72372 20.8256C2.88684 21.0349 3.10381 21.1934 3.37464 21.3011C3.64856 21.4058 3.95786 21.4581 4.30256 21.4581C4.6411 21.4581 4.93501 21.4089 5.1843 21.3104C5.43667 21.2119 5.6321 21.0749 5.7706 20.8995C5.90909 20.7241 5.97834 20.5225 5.97834 20.2947C5.97834 20.0824 5.91525 19.9039 5.78906 19.7592C5.66596 19.6146 5.48438 19.4915 5.24432 19.3899C5.00734 19.2884 4.7165 19.196 4.3718 19.1129L3.34233 18.8544C2.54522 18.6605 1.91584 18.3574 1.45419 17.945C0.992543 17.5326 0.763258 16.977 0.766335 16.2784C0.763258 15.706 0.915601 15.2058 1.22337 14.7781C1.53421 14.3503 1.96046 14.0163 2.50213 13.7763C3.0438 13.5362 3.65933 13.4162 4.34872 13.4162C5.05043 13.4162 5.66288 13.5362 6.18608 13.7763C6.71236 14.0163 7.12169 14.3503 7.41406 14.7781C7.70644 15.2058 7.85724 15.7013 7.86648 16.2646H5.95064ZM9.34029 23V13.5455H13.0704C13.7875 13.5455 14.3984 13.6824 14.9031 13.9563C15.4079 14.2272 15.7926 14.6042 16.0573 15.0874C16.325 15.5675 16.4589 16.1214 16.4589 16.7493C16.4589 17.3771 16.3235 17.9311 16.0526 18.4112C15.7818 18.8913 15.3894 19.2653 14.8754 19.533C14.3646 19.8008 13.7459 19.9347 13.0196 19.9347H10.6421V18.3327H12.6965C13.0812 18.3327 13.3982 18.2666 13.6475 18.1342C13.8998 17.9988 14.0876 17.8126 14.2107 17.5756C14.3369 17.3356 14.3999 17.0601 14.3999 16.7493C14.3999 16.4354 14.3369 16.1615 14.2107 15.9276C14.0876 15.6906 13.8998 15.5075 13.6475 15.3782C13.3951 15.2459 13.075 15.1797 12.6872 15.1797H11.3392V23H9.34029ZM18.2951 23H16.1531L19.4169 13.5455H21.9929L25.2521 23H23.1101L20.7418 15.706H20.668L18.2951 23ZM18.1612 19.2837H23.2209V20.8441H18.1612V19.2837ZM26.3901 13.5455H28.8553L31.459 19.8977H31.5698L34.1735 13.5455H36.6387V23H34.6998V16.8462H34.6213L32.1745 22.9538H30.8542L28.4075 16.8232H28.329V23H26.3901V13.5455Z" fill="black"/>
<path d="M8.5 28.5L30 6.50052" stroke="#A10071" stroke-width="2"/>
</svg>
