<svg width="39" height="36" viewBox="0 0 39 36" fill="none" xmlns="http://www.w3.org/2000/svg">
<path d="M2.04883 16.4746C2.31066 16.4752 3.00776 17.0419 3.87891 18C4.75044 18.9586 3.53037 19.7432 2.83301 18.8721C2.96413 20.3125 5.10081 33.9948 19.5254 34.6484C23.5932 34.6192 32.4953 32.1813 35.5635 22.6631C35.6652 22.387 35.939 21.8618 36.5664 22.1406C37.1934 22.4197 36.9147 23.3167 36.6533 23.709C35.4621 27.7912 30.3687 35.965 19.5254 36C5.97135 36.0436 1.30756 23.4483 1.39453 18.959C1.23475 19.0752 0.880834 19.3073 0.741211 19.3076C0.566879 19.3076 0 19.3509 0 18.5664C0.0437012 18.4064 0.209825 18.017 0.523438 17.7383C0.915877 17.3458 1.78742 16.4746 2.04883 16.4746ZM19.5254 4.09668C27.2757 4.09694 33.5584 10.3806 33.5586 18.1309C33.5585 25.8813 27.2758 32.1638 19.5254 32.1641C11.7749 32.1639 5.49125 25.8814 5.49121 18.1309C5.49142 10.3805 11.775 4.0968 19.5254 4.09668ZM24.1445 15.6895C23.9177 15.5588 23.3501 15.3852 23.0986 15.8203C22.8973 16.169 21.1555 19.6556 20.3096 21.3555C20.0329 21.8347 20.179 22.2868 20.5273 22.4883C20.876 22.6896 21.3114 22.4883 21.5293 22.1396C21.748 21.7894 24.0926 17.0852 24.3193 16.6924C24.5456 16.3002 24.371 15.8202 24.1445 15.6895ZM9.7627 15.5156C9.54477 15.5157 9.06585 15.6466 9.06543 16.2559C9.06543 16.8659 9.50115 16.9101 9.98047 16.9102H11.8545V18.3047H9.80566C9.37026 18.3049 9.06565 18.6101 9.06543 19.002V21.791C9.06543 22.3139 9.63179 22.4882 9.98047 22.4883H12.377C12.9435 22.4883 13.249 22.2268 13.249 21.791C13.2486 21.3556 12.8563 21.0938 12.5078 21.0938H10.46V19.6992H12.5078C13.1615 19.6992 13.249 19.1329 13.249 18.7842V16.126C13.2488 15.734 12.8564 15.5156 12.5078 15.5156H9.7627ZM18.0869 15.5156C17.4337 15.5158 17.4326 16.1255 17.4326 16.4307V18.3047H16.0381V16.3438C16.038 16.1256 15.9508 15.5159 15.2979 15.5156C14.7754 15.5157 14.6437 15.9225 14.6436 16.126V19.002C14.6436 19.3941 14.8622 19.6991 15.2979 19.6992H17.4326V21.791C17.4326 22.2703 17.7819 22.4882 18.0869 22.4883C18.392 22.4882 18.8271 22.3139 18.8271 21.791V16.3438C18.8271 15.9952 18.7402 15.5157 18.0869 15.5156ZM26.4551 15.5156C26.1067 15.5158 25.845 15.8206 25.8447 16.2559C25.8447 16.6916 26.1936 16.9101 26.6729 16.9102H28.2852L26.4551 21.3115C26.3389 21.5875 26.1938 22.1829 26.542 22.3574C26.9778 22.5753 27.4569 22.4882 27.6748 22.0088C27.8937 21.5267 29.5929 17.2582 29.9414 16.5176C30.2896 15.777 29.6794 15.5156 29.418 15.5156H26.4551ZM19.3506 0C32.9047 -0.0435822 37.5685 12.5518 37.4814 17.041C37.6412 16.9248 37.9951 16.6928 38.1348 16.6924C38.3091 16.6924 38.8759 16.6492 38.876 17.4336C38.8322 17.5936 38.667 17.983 38.3535 18.2617C37.9615 18.6537 37.0902 19.5244 36.8281 19.5254C36.5666 19.5254 35.8687 18.9587 34.9971 18C34.1256 17.0414 35.3456 16.2567 36.043 17.1279C35.9119 15.688 33.7755 2.00428 19.3506 1.35059C15.2827 1.37983 6.3807 3.81881 3.3125 13.3369C3.21072 13.613 2.93693 14.1382 2.30957 13.8594C1.68244 13.5803 1.96121 12.6822 2.22266 12.29C3.41419 8.20763 8.5078 0.0350156 19.3506 0Z" fill="white"/>
</svg>
