<svg width="38" height="38" viewBox="0 0 38 38" fill="none" xmlns="http://www.w3.org/2000/svg">
<path d="M17.3711 0.246094C18.7134 -0.199462 20.0368 0.0604455 20.5303 0.246094C24.577 1.45281 33.2027 4.05127 35.335 4.79395C37.4669 5.53653 38 6.96027 38 7.5791V15.1904C38 28.4995 28.6425 37.9997 18.9248 38C1.00152 37.5 0.000116198 18.2561 0 15.6553V8.13574C0.000199539 6.0567 1.90824 5.04146 2.8623 4.79395C7.13905 3.46356 16.0277 0.691987 17.3711 0.246094ZM19.166 6C14.0532 6.00025 13.0882 11.2088 13.0879 12.1748C13.0879 12.9467 13 14.2603 13 15H12C10.8954 15 10 15.8954 10 17V25.8057C10 26.9102 10.8954 27.8057 12 27.8057H26.5254C27.63 27.8057 28.5254 26.9102 28.5254 25.8057V17C28.5254 15.8954 27.63 15 26.5254 15H25.5C25.5 14.2925 25.4385 12.9859 25.4385 11.9824C25.4385 10.7281 24.2799 6 19.166 6ZM25.4385 24.6543H13.0879V18.3496H25.4385V24.6543ZM19.2627 19.8945C18.4102 19.8946 17.7188 20.5859 17.7188 21.4385C17.7188 22.291 18.4102 22.9823 19.2627 22.9824C20.1153 22.9824 20.8066 22.2911 20.8066 21.4385C20.8066 20.5859 20.1153 19.8945 19.2627 19.8945ZM19.166 9.18457C21.5779 9.18457 22.3504 11.2097 22.3506 12.1748V15H16.1748V12.1748C16.1751 11.4989 16.7546 9.18481 19.166 9.18457Z" fill="#A10071"/>
</svg>
