<svg width="38" height="38" viewBox="0 0 38 38" fill="none" xmlns="http://www.w3.org/2000/svg">
<path d="M18.7418 0C19.477 0 21.8823 2.26615 22.9928 3.39941C24.6395 3.0461 28.0937 2.43448 28.7369 2.81348C29.3802 3.1934 30.3062 6.80099 30.6891 8.55762C32.3227 9.10465 35.6206 10.3162 35.7438 10.7852C35.8668 11.2543 35.0296 15.0443 34.5953 16.8809C35.4761 18.0531 37.2369 20.6325 37.2369 21.5703C37.2366 22.5082 34.6336 24.774 33.3317 25.79C33.37 27.5485 33.3089 31.2068 32.7574 31.7695C32.2057 32.3322 28.851 32.707 27.2428 32.8242C26.4004 34.3871 24.5095 37.5127 23.6823 37.5137C22.8551 37.5137 19.8909 36.1848 18.5123 35.5205C17.172 36.1848 14.2847 37.5137 13.4576 37.5137C12.6305 37.5133 10.8155 34.3872 10.0114 32.8242C8.28846 32.7433 4.75111 32.419 4.38245 31.7695C4.01484 31.1198 3.99943 27.5903 4.03772 25.9072C2.78979 24.8521 0.239036 22.5316 0.0172119 21.6875C-0.204413 20.8435 1.76268 18.0532 2.77405 16.7637C2.22019 15.0443 1.19216 11.4653 1.51038 10.9023C1.82873 10.3396 4.85994 9.10468 6.33557 8.55762C6.83338 6.72667 8.01248 3.01485 8.74768 2.81348C9.48287 2.61245 12.4238 3.12026 13.8024 3.39941C15.1424 2.26631 18.0061 0.000688815 18.7418 0ZM26.151 14.9512C25.3204 14.1032 24.4284 14.7166 23.8004 15.3564L18.0563 22.2734C17.0224 21.4919 14.8624 19.8585 14.4948 19.5771C14.0352 19.2255 13.0549 18.7032 12.3121 19.5771C11.6727 20.3299 12.0059 21.1785 12.3121 21.5693C13.4992 22.4681 16.103 24.4772 17.0221 25.3213C17.9408 26.1651 18.8598 25.8291 19.2047 25.5557L25.983 17.4668C26.3812 16.9443 27.1849 16.0067 26.151 14.9512Z" fill="white"/>
</svg>
