<svg width="16" height="13" viewBox="0 0 16 13" fill="none" xmlns="http://www.w3.org/2000/svg">
<path d="M4.54156 4.75009L6.32937 4.72945C6.41562 4.72835 6.49594 4.74981 6.56406 4.78724C6.93437 4.97604 7.28406 5.19097 7.60938 5.43343C7.7925 5.57021 7.96969 5.71635 8.14031 5.87266C8.755 5.03163 9.48531 4.17793 10.2503 3.37433C11.2472 2.32743 12.31 1.3598 13.2572 0.612063C13.34 0.546838 13.4437 0.514914 13.5466 0.514914L14.9284 0.512988C15.1691 0.512988 15.3644 0.684993 15.3644 0.896903C15.3644 1.00313 15.3156 1.09891 15.2366 1.16853C13.9684 2.41027 12.6678 3.832 11.4891 5.28895C10.3978 6.63802 9.40938 8.01819 8.6475 9.31414C8.5375 9.50211 8.275 9.57586 8.06156 9.47899C7.97578 9.44021 7.90723 9.37723 7.86688 9.3001C7.44938 8.51383 6.95187 7.79196 6.35969 7.14798C5.76812 6.50482 5.07844 5.93459 4.27563 5.44939C4.07719 5.33023 4.02625 5.09162 4.16156 4.91687C4.24969 4.80293 4.39563 4.74431 4.54156 4.75009ZM1.95469 0L10.3972 0C9.79906 0.54271 9.28094 1.07221 8.83562 1.58107L1.95469 1.58107C1.91031 1.58107 1.87 1.59676 1.84094 1.62125C1.81166 1.64823 1.79532 1.68411 1.79531 1.72143L1.79531 11.2783C1.79531 11.3152 1.81406 11.3499 1.84344 11.376C1.87344 11.4021 1.91313 11.4189 1.95469 11.4189H14.045C14.0853 11.4189 14.1247 11.4019 14.155 11.3754C14.1853 11.3488 14.2047 11.3138 14.2047 11.2783V5.87817C14.8553 5.64121 15.4672 5.3971 16 5.16786V11.2783C16 11.75 15.7778 12.1815 15.4241 12.4931C15.07 12.8049 14.5806 13 14.045 13H1.95469C1.41938 13 0.92875 12.8057 0.574375 12.4936C0.22125 12.1826 0 11.7522 0 11.2783L0 1.72143C0 1.24944 0.22 0.819569 0.573438 0.508034L0.576875 0.505007C0.930625 0.193746 1.41875 0 1.95469 0Z" fill="white"/>
</svg>
